<svg width="256" height="256" viewBox="0 0 256 256" fill="none" xmlns="http://www.w3.org/2000/svg">
<title>Secure Signal</title><desc>Thin outline icon for secure wireless transmission.</desc>
<g stroke="currentColor" stroke-width="5" stroke-linecap="round" stroke-linejoin="round">
<path d="M62 176C82 152 104 140 128 140C152 140 174 152 194 176"/>
<path d="M78 156C94 138 111 130 128 130C145 130 162 138 178 156"/>
<path d="M96 138C106 128 117 124 128 124C139 124 150 128 160 138"/>
<circle cx="128" cy="188" r="10"/>
<path d="M128 56L174 74V112C174 145 154 171 128 182C102 171 82 145 82 112V74L128 56Z"/>
</g></svg>