<?xml version="1.0" encoding="UTF-8"?>
<svg xmlns="http://www.w3.org/2000/svg" version="1.1" viewBox="0 0 256 256">
  <defs>
    <style>
      .cls-1 {
        fill: #0686f9;
      }

      .cls-1, .cls-2 {
        isolation: isolate;
      }
    </style>
  </defs>
  <!-- Generator: Adobe Illustrator 28.7.10, SVG Export Plug-In . SVG Version: 1.2.0 Build 236)  -->
  <g>
    <g id="Layer_1">
      <g class="cls-2">
        <g id="Layer_1-2" data-name="Layer_1">
          <g>
            <path class="cls-1" d="M128,67c2.8,0,5-2.2,5-5v-20c0-2.8-2.2-5-5-5s-5,2.2-5,5v20c0,2.8,2.2,5,5,5Z"/>
            <path class="cls-1" d="M128,189c-2.8,0-5,2.2-5,5v20c0,2.8,2.2,5,5,5s5-2.2,5-5v-20c0-2.8-2.2-5-5-5Z"/>
            <path class="cls-1" d="M67,128c0-2.8-2.2-5-5-5h-20c-2.8,0-5,2.2-5,5s2.2,5,5,5h20c2.8,0,5-2.2,5-5Z"/>
            <path class="cls-1" d="M214,123h-20c-2.8,0-5,2.2-5,5s2.2,5,5,5h20c2.8,0,5-2.2,5-5s-2.2-5-5-5Z"/>
            <path class="cls-1" d="M77.9,84.9c1,1,2.3,1.5,3.5,1.5s2.6-.5,3.5-1.5c2-2,2-5.1,0-7.1l-14.2-14.2c-2-2-5.1-2-7.1,0-2,2-2,5.1,0,7.1l14.2,14.2h0Z"/>
            <path class="cls-1" d="M178.1,171.1c-2-2-5.1-2-7.1,0s-2,5.1,0,7.1l14.2,14.2c1,1,2.3,1.5,3.5,1.5s2.6-.5,3.5-1.5c2-2,2-5.1,0-7.1l-14.2-14.2h.1Z"/>
            <path class="cls-1" d="M174.6,86.4c1.3,0,2.6-.5,3.5-1.5l14.2-14.2c2-2,2-5.1,0-7.1s-5.1-2-7.1,0l-14.2,14.2c-2,2-2,5.1,0,7.1s2.3,1.5,3.5,1.5h.1Z"/>
            <path class="cls-1" d="M77.9,171.1l-14.2,14.2c-2,2-2,5.1,0,7.1,1,1,2.3,1.5,3.5,1.5s2.6-.5,3.5-1.5l14.2-14.2c2-2,2-5.1,0-7.1s-5.1-2-7.1,0h.1Z"/>
            <path class="cls-1" d="M128,76c-28.7,0-52,23.3-52,52s23.3,52,52,52,52-23.3,52-52-23.3-52-52-52ZM128,162c-18.8,0-34-15.2-34-34s15.2-34,34-34,34,15.2,34,34-15.2,34-34,34Z"/>
          </g>
        </g>
      </g>
    </g>
  </g>
</svg>