<?xml version="1.0" encoding="UTF-8"?>
<svg xmlns="http://www.w3.org/2000/svg" version="1.1" viewBox="0 0 256 256">
  <defs>
    <style>
      .cls-1 {
        isolation: isolate;
      }

      .cls-2 {
        fill: #fff;
      }
    </style>
  </defs>
  <!-- Generator: Adobe Illustrator 28.7.10, SVG Export Plug-In . SVG Version: 1.2.0 Build 236)  -->
  <g>
    <g id="Layer_1">
      <path class="cls-2" d="M130.8,222.5c-53.1,0-96.3-43.2-96.3-96.3S77.7,30,130.8,30s2.5,0,4,0l13,.5-10.5,7.6c-16.8,12.2-26.9,31.8-26.9,52.6,0,35.7,29.1,64.8,64.8,64.8s31.1-5.8,43-16.3l9.7-8.6-2.3,12.8c-8.3,45.8-48.1,79.1-94.7,79.1ZM122.2,39.4c-44.1,4.3-78.7,41.6-78.7,86.8s39.1,87.3,87.3,87.3,71.2-24.5,82.9-59.8c-11.5,7.1-24.8,10.8-38.5,10.8-40.7,0-73.8-33.1-73.8-73.8s7.6-37.7,20.8-51.4Z"/>
      <g class="cls-1">
        <path class="cls-2" d="M175.1,76.3c-8,0-14.5,6.5-14.5,14.5s6.5,14.5,14.5,14.5,14.5-6.5,14.5-14.5-6.5-14.5-14.5-14.5ZM180.6,90.8c0,3-2.5,5.5-5.5,5.5s-5.5-2.5-5.5-5.5,2.5-5.5,5.5-5.5,5.5,2.5,5.5,5.5Z"/>
        <path class="cls-2" d="M175.1,73.3c2.5,0,4.5-2,4.5-4.5v-8c0-2.5-2-4.5-4.5-4.5s-4.5,2-4.5,4.5v8c0,2.5,2,4.5,4.5,4.5Z"/>
        <path class="cls-2" d="M175.1,108.3c-2.5,0-4.5,2-4.5,4.5v8c0,2.5,2,4.5,4.5,4.5s4.5-2,4.5-4.5v-8c0-2.5-2-4.5-4.5-4.5Z"/>
        <path class="cls-2" d="M205.1,86.3h-8c-2.5,0-4.5,2-4.5,4.5s2,4.5,4.5,4.5h8c2.5,0,4.5-2,4.5-4.5s-2-4.5-4.5-4.5Z"/>
        <path class="cls-2" d="M153.1,86.3h-8c-2.5,0-4.5,2-4.5,4.5s2,4.5,4.5,4.5h8c2.5,0,4.5-2,4.5-4.5s-2-4.5-4.5-4.5Z"/>
      </g>
    </g>
  </g>
</svg>